<svg width="582" height="583" viewBox="0 0 582 583" fill="none" xmlns="http://www.w3.org/2000/svg">
<g clip-path="url(#clip0)">
<path d="M407.875 255.263C442.851 255.263 471.205 228.992 471.205 196.585C471.205 164.177 442.851 137.906 407.875 137.906C372.899 137.906 344.545 164.177 344.545 196.585C344.545 228.992 372.899 255.263 407.875 255.263Z" fill="#FF6584"/>
<path d="M581.593 240.335C581.732 240.311 581.837 240.221 582 240.244C581.929 239.99 581.836 239.741 581.722 239.501C581.521 239.756 581.315 240.015 581.135 240.243L581.593 240.335Z" fill="white"/>
<path d="M156.828 335.465C157.198 348.267 159.513 360.957 163.703 373.161C163.799 373.444 163.9 373.723 164 374.006H189.657C189.629 373.753 189.602 373.469 189.575 373.161C187.864 354.939 178.001 244.032 189.794 225.066C188.763 226.604 154.839 277.564 156.828 335.465Z" fill="#E6E6E6"/>
<path d="M158.754 373.161C158.968 373.444 159.191 373.727 159.42 374.006H178.667C178.521 373.765 178.352 373.482 178.156 373.161C174.976 367.843 165.565 351.946 156.828 335.465C147.44 317.754 138.827 299.371 139.552 292.718C139.328 294.219 132.832 339.962 158.754 373.161Z" fill="#E6E6E6"/>
<path d="M358.759 376.209C358.436 387.37 356.419 398.434 352.765 409.073C352.682 409.32 352.594 409.563 352.507 409.81H330.139C330.162 409.589 330.186 409.342 330.21 409.073C331.702 393.187 340.3 296.497 330.019 279.962C330.918 281.303 360.493 325.731 358.759 376.209Z" fill="#E6E6E6"/>
<path d="M357.08 409.073C356.893 409.32 356.699 409.567 356.5 409.81H339.72C339.847 409.6 339.994 409.353 340.165 409.073C342.937 404.437 351.142 390.577 358.759 376.209C366.944 360.769 374.453 344.742 373.821 338.942C374.015 340.25 379.679 380.13 357.08 409.073Z" fill="#E6E6E6"/>
<path d="M103.008 47.6282L113.439 39.8981C105.335 39.0697 102.006 43.1646 100.643 46.4057C94.3123 43.97 87.4205 47.1621 87.4205 47.1621L108.291 54.1824C107.238 51.5767 105.406 49.3031 103.008 47.6282Z" fill="#3F3D56"/>
<path d="M417.185 7.83838L427.616 0.108257C419.512 -0.720111 416.183 3.37474 414.82 6.61585C408.489 4.18017 401.597 7.37225 401.597 7.37225L422.468 14.3926C421.415 11.7868 419.583 9.51326 417.185 7.83838Z" fill="#3F3D56"/>
<path d="M570.66 313.528C570.66 319.933 570.419 326.286 569.937 332.586C566.222 382.293 547.62 430.054 516.223 470.505C512.12 475.811 507.811 480.968 503.298 485.976C491.603 498.972 478.619 510.922 464.515 521.671L402.693 488.059L365.729 408.124C365.729 408.124 420.88 304.66 570.561 306.536C570.624 308.859 570.657 311.189 570.66 313.528Z" fill="#3F3D56"/>
<path d="M569.937 332.586C567.093 369.73 555.97 405.925 537.271 438.886C518.572 471.847 492.703 500.86 461.295 524.092L403.861 492.869L371.081 421.976C371.081 421.976 424.198 322.33 569.937 332.586Z" fill="#F4EF88"/>
<path d="M516.223 470.505C512.12 475.811 507.811 480.968 503.298 485.976C473.055 519.644 434.412 545.974 390.713 562.688C381.865 566.068 372.809 569.049 363.544 571.63C296.647 588.114 225.774 583.944 161.664 559.754C98.2603 533.533 47.0234 487.226 17.1563 429.149C13.1424 421.331 9.53289 413.314 6.32773 405.099C62.2275 367.157 172.377 312.826 292.427 365.62C325.635 380.223 355.287 393.534 381.383 405.554C447.603 435.967 491.676 457.893 516.223 470.505Z" fill="#3F3D56"/>
<path d="M503.298 485.976C472.036 520.691 431.853 547.564 386.447 564.123C341.04 580.682 291.869 586.394 243.456 580.735C195.043 575.076 148.943 558.227 109.399 531.738C69.8537 505.249 38.1335 469.971 17.1562 429.149C63.8419 394.942 171.521 333.47 289.689 385.43C320.078 398.793 347.209 410.975 371.081 421.975C440.673 453.935 483.541 475.654 503.298 485.976Z" fill="#F4EF88"/>
<path d="M420.898 549.208C411.121 554.23 401.044 558.73 390.714 562.688C355.559 576.111 317.899 582.996 279.877 582.952C234.886 582.936 190.511 573.255 150.238 554.671C109.965 536.087 74.8905 509.105 47.7687 475.844C117.217 469.059 309.187 459.91 420.898 549.208Z" fill="#3F3D56"/>
<path d="M390.713 562.688C336.202 583.456 276.172 588.403 218.561 576.874C160.95 565.346 108.472 537.886 68.0699 498.125C93.3305 494.687 291.651 471.075 390.713 562.688Z" fill="#F4EF88"/>
<path d="M521.887 164.121V164.13C314.254 21.8885 76.3653 122.005 74.5278 122.774V122.766C101.491 97.7857 133.508 77.9795 168.746 64.4814C203.983 50.9833 241.747 44.0586 279.877 44.1037C380.822 44.1037 469.751 91.7653 521.887 164.121Z" fill="#E6E6E6"/>
<path d="M91.1812 318.751C126.306 312.883 144.305 254.295 131.383 187.89C118.462 121.486 79.5124 72.411 44.3877 78.2787C9.26297 84.1465 -8.73618 142.735 4.18549 209.139C17.1072 275.544 56.0565 324.619 91.1812 318.751Z" fill="#3F3D56"/>
<path d="M100.208 396.303C98.1257 250.446 45.4553 113.567 44.9237 112.203L40.1203 113.808C40.6493 115.166 93.0307 251.327 95.1022 396.367L100.208 396.303Z" fill="#F4EF88"/>
<path d="M6.76046 182.014L5.18891 186.517L68.2458 205.412L69.8173 200.909L6.76046 182.014Z" fill="#F4EF88"/>
<path d="M125.376 176.942L73.4212 215.067L76.592 218.776L128.547 180.652L125.376 176.942Z" fill="#F4EF88"/>
<path d="M260.074 297.723C298.695 297.723 330.004 238.533 330.004 165.519C330.004 92.5042 298.695 33.3142 260.074 33.3142C221.453 33.3142 190.145 92.5042 190.145 165.519C190.145 238.533 221.453 297.723 260.074 297.723Z" fill="#3F3D56"/>
<path d="M253.617 381.916C281.624 226.219 253.898 71.0839 253.615 69.5363L248.167 70.3913C248.449 71.9314 276.015 226.251 248.166 381.076L253.617 381.916Z" fill="#F4EF88"/>
<path d="M198.508 137.091L195.901 141.606L259.136 172.945L261.743 168.43L198.508 137.091Z" fill="#F4EF88"/>
<path d="M325.875 152.789L262.647 184.146L265.255 188.661L328.483 157.304L325.875 152.789Z" fill="#F4EF88"/>
<path d="M563.827 255.197C538.17 241.85 511.363 230.494 483.684 221.246C330.63 169.931 178.862 189.709 119.456 263.147C165.687 173.179 330.648 144.89 497.117 200.7C516.492 207.19 535.453 214.696 553.908 223.18C557.929 233.651 561.242 244.344 563.827 255.197Z" fill="#E6E6E6"/>
<path d="M357.119 110.421L367.55 102.691C359.446 101.862 356.117 105.957 354.754 109.198C348.423 106.763 341.532 109.955 341.532 109.955L362.402 116.975C361.349 114.369 359.517 112.096 357.119 110.421Z" fill="#3F3D56"/>
</g>
<defs>
<clipPath id="clip0">
<rect width="582" height="582.953" fill="white"/>
</clipPath>
</defs>
</svg>
